<svg width="25" height="24" viewBox="0 0 25 24" fill="none" xmlns="http://www.w3.org/2000/svg">
<g clip-path="url(#clip0_180_145)">
<path d="M9.8326 21.9999C10.3871 21.9999 10.8368 21.5522 10.8368 20.9999C10.8368 20.4476 10.3871 19.9999 9.8326 19.9999C9.27799 19.9999 8.82837 20.4476 8.82837 20.9999C8.82837 21.5522 9.27799 21.9999 9.8326 21.9999Z" stroke="black" stroke-width="2" stroke-linecap="round" stroke-linejoin="round"/>
<path d="M20.8787 21.9999C21.4333 21.9999 21.8828 21.5522 21.8828 20.9999C21.8828 20.4476 21.4333 19.9999 20.8787 19.9999C20.3241 19.9999 19.8745 20.4476 19.8745 20.9999C19.8745 21.5522 20.3241 21.9999 20.8787 21.9999Z" stroke="black" stroke-width="2" stroke-linecap="round" stroke-linejoin="round"/>
<path d="M1.79919 1.00012H5.81594L8.50712 14.3901C8.599 14.8505 8.85047 15.2641 9.21763 15.5584C9.58486 15.8527 10.0443 16.0091 10.5155 16.0001H20.2762C20.7474 16.0091 21.2069 15.8527 21.5741 15.5584C21.9412 15.2641 22.1927 14.8505 22.2846 14.3901L23.8912 6.00012H6.82012" stroke="black" stroke-width="2" stroke-linecap="round" stroke-linejoin="round"/>
</g>
<defs>
<clipPath id="clip0_180_145">
<rect width="24.1004" height="24" fill="white" transform="translate(0.794922)"/>
</clipPath>
</defs>
</svg>
