<svg width="33" height="34" viewBox="0 0 33 34" fill="none" xmlns="http://www.w3.org/2000/svg">
<circle cx="16.2428" cy="16.8993" r="16.2428" fill="#CDCDCD"/>
<path d="M18.2281 8.66504C17.1212 8.66504 16.0596 9.10475 15.2769 9.88743C14.4943 10.6701 14.0546 11.7317 14.0546 12.8385V15.1622H11.8212C11.7093 15.1622 11.6181 15.2524 11.6181 15.3652V18.4333C11.6181 18.5452 11.7084 18.6363 11.8212 18.6363H14.0546V24.9304C14.0546 25.0423 14.1448 25.1335 14.2576 25.1335H17.3257C17.4376 25.1335 17.5287 25.0432 17.5287 24.9304V18.6363H19.782C19.8749 18.6363 19.9561 18.5732 19.9787 18.4829L20.7457 15.4148C20.7532 15.3849 20.7539 15.3536 20.7475 15.3234C20.7412 15.2932 20.728 15.2648 20.709 15.2405C20.6901 15.2161 20.6658 15.1964 20.6381 15.1828C20.6103 15.1693 20.5799 15.1622 20.549 15.1622H17.5287V12.8385C17.5287 12.7467 17.5468 12.6558 17.582 12.5709C17.6171 12.4861 17.6686 12.409 17.7335 12.344C17.7985 12.2791 17.8756 12.2276 17.9604 12.1924C18.0453 12.1573 18.1362 12.1392 18.2281 12.1392H20.5742C20.6861 12.1392 20.7773 12.049 20.7773 11.9362V8.86807C20.7773 8.75618 20.687 8.66504 20.5742 8.66504H18.2281Z" fill="#35322F"/>
</svg>
