<svg width="34" height="34" viewBox="0 0 34 34" fill="none" xmlns="http://www.w3.org/2000/svg">
<circle cx="17.1427" cy="16.8993" r="16.2428" fill="#CDCDCD"/>
<path d="M9.02133 15.9969C9.02133 12.594 9.02133 10.8921 10.0789 9.83542C11.1365 8.77873 12.8375 8.77783 16.2404 8.77783H18.0451C21.448 8.77783 23.1499 8.77783 24.2066 9.83542C25.2633 10.893 25.2642 12.594 25.2642 15.9969V17.8016C25.2642 21.2045 25.2642 22.9064 24.2066 23.9631C23.149 25.0198 21.448 25.0207 18.0451 25.0207H16.2404C12.8375 25.0207 11.1356 25.0207 10.0789 23.9631C9.02223 22.9055 9.02133 21.2045 9.02133 17.8016V15.9969Z" stroke="#35322F" stroke-width="2"/>
<path d="M21.2035 14.192C21.951 14.192 22.557 13.586 22.557 12.8384C22.557 12.0909 21.951 11.4849 21.2035 11.4849C20.4559 11.4849 19.8499 12.0909 19.8499 12.8384C19.8499 13.586 20.4559 14.192 21.2035 14.192Z" fill="#35322F"/>
<path d="M17.1427 19.6064C18.6379 19.6064 19.8499 18.3944 19.8499 16.8993C19.8499 15.4042 18.6379 14.1921 17.1427 14.1921C15.6476 14.1921 14.4356 15.4042 14.4356 16.8993C14.4356 18.3944 15.6476 19.6064 17.1427 19.6064Z" stroke="#35322F" stroke-width="2"/>
</svg>
