<svg width="18" height="19" viewBox="0 0 18 19" fill="none" xmlns="http://www.w3.org/2000/svg">
<path fill-rule="evenodd" clip-rule="evenodd" d="M11.9776 13.5533C10.7075 14.4934 14.657 10.4546 13.5331 11.9899C13.5612 11.9876 13.5091 12.0728 13.3343 12.2861C13.3343 12.2861 16.3358 15.2674 17.8092 16.7846C18.3207 17.3378 17.3978 18.4418 16.7708 17.8654C15.4366 16.5709 12.2795 13.3538 12.2746 13.3485L11.9776 13.5533Z" fill="black"/>
<path d="M7.56715 15.0607C9.4984 15.042 11.4102 14.2421 12.7849 12.8835C14.4177 11.2699 15.2584 8.88262 14.9652 6.60337C14.4627 2.69774 11.2519 0.0472412 7.51915 0.0472412C4.68303 0.0472412 1.92678 1.82137 0.717777 4.39387C-0.207722 6.36337 -0.209597 8.74124 0.717777 10.7141C1.91815 13.2686 4.6294 15.0334 7.47078 15.0607C7.50303 15.0607 7.53528 15.0607 7.56715 15.0607ZM7.47865 13.8094C4.59453 13.7816 1.90353 11.5511 1.3684 8.69137C0.991153 6.67537 1.70328 4.49362 3.18678 3.06187C4.91853 1.38974 7.64065 0.829866 9.90415 1.77749C11.9292 2.62537 13.4449 4.59412 13.7243 6.76312C13.9635 8.62237 13.2964 10.5709 11.9854 11.913C10.8353 13.0905 9.2224 13.7932 7.55928 13.8094C7.53228 13.8094 7.50565 13.8094 7.47865 13.8094Z" fill="black"/>
</svg>
