<svg width="81" height="46" viewBox="0 0 81 46" fill="none" xmlns="http://www.w3.org/2000/svg">
<path d="M68.1482 6.03436H57.1836C56.7658 6.03436 56.386 6.20513 56.1105 6.48006C55.8357 6.75559 55.6649 7.13469 55.6649 7.55254V35.2604C55.6649 35.6783 55.8357 36.058 56.1105 36.3329C56.386 36.6085 56.7658 36.7792 57.1836 36.7792H59.1942L59.1953 36.7677L59.1977 36.7477L59.2068 36.6739L59.2111 36.643L59.219 36.5842L59.2262 36.5322L59.2323 36.4928L59.2402 36.4407L59.2475 36.3971L59.2559 36.3439L59.2566 36.339L59.2711 36.2572L59.2723 36.2518L59.2887 36.1651L59.3001 36.1053L59.3062 36.0732L59.3177 36.0169L59.3262 35.9768L59.3358 35.9321L59.348 35.8775L59.3571 35.837L59.3673 35.7945L59.3806 35.7389L59.3819 35.7352L59.4013 35.659L59.4037 35.6504L59.4261 35.5663L59.4485 35.4858L59.4497 35.4815L59.4678 35.4173L59.4757 35.3894L59.4915 35.3368L59.5066 35.2871L59.5163 35.2556L59.5338 35.1993L59.5478 35.1569L59.5593 35.123L59.5775 35.0685L59.578 35.0673L59.6065 34.9856L59.6078 34.9825L59.6362 34.9038L59.6375 34.9008L59.652 34.8608L59.6731 34.8044L59.6865 34.7693L59.704 34.7239L59.7216 34.6804L59.741 34.6319L59.7561 34.5956L59.7852 34.5265L59.7907 34.5126L59.8107 34.466L59.8518 34.3721L59.864 34.3443L59.8694 34.3321L59.8785 34.3133L59.9063 34.2533L59.9275 34.2074L59.9402 34.1801L59.9656 34.1269L59.9874 34.082L60.0025 34.0518L60.031 33.9955L60.042 33.9731L60.0498 33.9585L60.0879 33.8853L60.0892 33.8828L60.1298 33.8077L60.1352 33.798L60.1468 33.7768L60.1794 33.7181L60.1915 33.6963L60.2249 33.6375L60.2412 33.609L60.2697 33.5606L60.2933 33.5206L60.3114 33.4897L60.3405 33.4414L60.3429 33.4371L60.3847 33.3693L60.3877 33.3644L60.4332 33.2923L60.4374 33.285L60.4792 33.2209L60.4846 33.2125L60.5609 33.098L60.5882 33.0587L60.6106 33.0259L60.6524 32.9672L60.6608 32.955L60.7033 32.8957L60.7165 32.8782L60.7214 32.8715L60.7717 32.8031L60.7753 32.7988L60.8323 32.7237L60.845 32.7067L60.8862 32.6541L60.9085 32.6256L60.946 32.5777L60.9654 32.5542L61.0085 32.5009L61.023 32.4833L61.0678 32.43L61.0823 32.4125L61.0896 32.404L61.1447 32.3398L61.1465 32.3374L61.2005 32.2757L61.2113 32.2635L61.2568 32.2127L61.2633 32.2054L61.2985 32.1672L61.33 32.1333L61.3554 32.1055L61.3972 32.0606L61.4184 32.0382L61.459 31.9964L61.4796 31.9752L61.4893 31.9655L61.5486 31.9056C63.0323 30.4213 65.0828 29.5033 67.3476 29.5033C69.6123 29.5033 71.6628 30.4213 73.1465 31.9056L73.2058 31.9655L73.2155 31.9752L73.2361 31.9964L73.2767 32.0382L73.2978 32.0606L73.3396 32.1055L73.3651 32.1333L73.3959 32.1672L73.4311 32.2054L73.4378 32.2127L73.4832 32.2635L73.4941 32.2757L73.548 32.3374L73.5497 32.3398L73.6049 32.404L73.6116 32.4125L73.6261 32.43L73.6709 32.4833L73.6854 32.5009L73.7285 32.5542L73.7478 32.5777L73.7853 32.6256L73.8077 32.6541L73.8483 32.7067L73.8616 32.7237L73.9186 32.7988L73.9222 32.8031L73.9725 32.8715L73.9773 32.8782L73.9906 32.8957L74.0331 32.955L74.0415 32.9672L74.0833 33.0259L74.1057 33.0587L74.1323 33.098L74.1597 33.1379L74.2093 33.2125L74.2147 33.2209L74.2565 33.285L74.2607 33.2923L74.3062 33.3644L74.3092 33.3693L74.351 33.4371L74.3534 33.4414L74.3825 33.4897L74.4006 33.5206L74.4242 33.5606L74.4527 33.609L74.469 33.6375L74.5023 33.6963L74.5145 33.7181L74.5471 33.7768L74.5587 33.798L74.5641 33.8077L74.6041 33.8828L74.606 33.8853L74.644 33.9585L74.6513 33.9731L74.6623 33.9955L74.6912 34.0518L74.7065 34.082L74.7283 34.1269L74.7537 34.1801L74.7663 34.2074L74.7876 34.2533L74.8154 34.3133L74.8239 34.3321L74.8299 34.3443L74.842 34.3721L74.8832 34.466L74.9032 34.5126L74.9087 34.5265L74.9378 34.5956L74.9716 34.6804L74.9893 34.7239L75.0068 34.7693L75.0201 34.8044L75.0407 34.8608L75.0553 34.9008L75.0564 34.9038L75.0849 34.9825L75.0861 34.9856L75.1146 35.0673L75.1152 35.0685L75.1334 35.123L75.1442 35.1569L75.1582 35.1993L75.1763 35.2556L75.186 35.2871L75.2012 35.3368L75.2169 35.3894L75.2248 35.4173L75.243 35.4815L75.2442 35.4858L75.2665 35.5663L75.289 35.6504L75.2908 35.659L75.3102 35.7352L75.3114 35.7389L75.3247 35.7945L75.3344 35.837L75.3435 35.8775L75.3556 35.9321L75.3653 35.9768L75.3737 36.0169L75.3853 36.0732L75.3913 36.1053L75.4028 36.1646L75.4192 36.2518L75.4203 36.2572L75.4349 36.339L75.4356 36.3439L75.444 36.3971L75.4513 36.4407L75.4591 36.4928L75.4652 36.5322L75.4725 36.5842L75.4803 36.643L75.4846 36.6739L75.4936 36.7477L75.496 36.7677L75.4973 36.7792H77.3957C77.8137 36.7792 78.1927 36.6085 78.4682 36.3329C78.7438 36.058 78.914 35.6783 78.914 35.2604V32.1253H76.0883C75.7722 32.1253 75.4845 31.9957 75.2755 31.7875H75.2738C75.0654 31.5785 74.9358 31.2903 74.9358 30.973V27.7567C74.9358 27.4394 75.0654 27.1512 75.2744 26.9417L75.2755 26.9429C75.4851 26.7334 75.7733 26.6038 76.0889 26.6038H78.9145V20.3918L69.4034 6.68345C69.2544 6.46846 69.0715 6.30435 68.865 6.19657C68.6615 6.08999 68.4211 6.03427 68.154 6.03427L68.1482 6.03436ZM16.3662 45.6019C16.024 45.6019 15.7461 45.3239 15.7461 44.9811C15.7461 44.639 16.024 44.361 16.3662 44.361H23.0923C22.7368 44.1043 22.4019 43.8191 22.0925 43.5096C20.8147 42.2318 19.9567 40.5338 19.7429 38.6408H14.3285C13.3063 38.6408 12.3786 38.2236 11.7063 37.5514C11.0336 36.8792 10.6169 35.9509 10.6169 34.9293V29.6245C10.6169 28.6028 11.0342 27.6745 11.7063 27.0022C12.3785 26.3301 13.3068 25.9129 14.3285 25.9129H18.4265V1.31477C18.4265 0.801247 18.8431 0.384613 19.3566 0.384613H47.5233C48.0369 0.384613 48.4536 0.801247 48.4536 1.31477V25.9129H51.9538C52.6272 25.9129 53.2599 26.0939 53.8056 26.4101V7.55413C53.8056 6.62277 54.1846 5.77799 54.7963 5.16642C55.4079 4.55479 56.2527 4.1757 57.1839 4.1757H68.1486C68.7093 4.1757 69.2398 4.3065 69.717 4.556C70.1911 4.80428 70.6011 5.16642 70.9239 5.6315L80.5591 19.5185C80.6905 19.679 80.7692 19.8843 80.7692 20.1071V35.2628C80.7692 36.1942 80.3902 37.039 79.7785 37.6505C79.1669 38.2621 78.3222 38.6413 77.3908 38.6413H75.4923C75.2785 40.5343 74.4204 42.2323 73.1428 43.5101C72.8333 43.8194 72.499 44.1047 72.143 44.3615H77.2159C77.5581 44.3615 77.836 44.6395 77.836 44.9816C77.836 45.3243 77.5581 45.6022 77.2159 45.6022H69.585C68.8723 45.8039 68.1208 45.9124 67.3438 45.9124C66.5669 45.9124 65.8147 45.8039 65.1025 45.6022H57.0237C56.681 45.6022 56.403 45.3243 56.403 44.9816C56.403 44.6395 56.681 44.3615 57.0237 44.3615H62.5453C62.1892 44.1047 61.8549 43.8194 61.5455 43.5101C60.2677 42.2323 59.409 40.5343 59.1959 38.6413H57.1853C56.2539 38.6413 55.4086 38.2621 54.7977 37.6505C54.7443 37.5966 54.6922 37.5416 54.6426 37.4846C54.6213 37.5077 54.5995 37.53 54.5772 37.5518C53.9043 38.224 52.9767 38.6413 51.955 38.6413H36.0415C35.8278 40.5343 34.9697 42.2323 33.692 43.5101C33.3825 43.8194 33.0482 44.1047 32.6922 44.3615H48.2646C48.6074 44.3615 48.8848 44.6395 48.8848 44.9816C48.8848 45.3243 48.6074 45.6022 48.2646 45.6022H30.1342C29.422 45.8039 28.67 45.9124 27.893 45.9124C27.1161 45.9124 26.3639 45.8039 25.6518 45.6022H16.3683L16.3662 45.6019ZM53.3679 45.6019C53.0252 45.6019 52.7478 45.3239 52.7478 44.9811C52.7478 44.639 53.0252 44.361 53.3679 44.361H54.389C54.7317 44.361 55.009 44.639 55.009 44.9811C55.009 45.3239 54.7317 45.6019 54.389 45.6019H53.3679ZM39.1944 22.8051C38.9377 22.8051 38.7294 22.5968 38.7294 22.3401C38.7294 22.0833 38.9377 21.875 39.1944 21.875H42.6935C42.9502 21.875 43.1585 22.0833 43.1585 22.3401C43.1585 22.5968 42.9502 22.8051 42.6935 22.8051H39.1944ZM20.2874 25.9123H46.5939V2.24442H37.3663V9.65717C37.3663 9.99932 37.0889 10.2773 36.7461 10.2773C36.5995 10.2773 36.4651 10.2264 36.3592 10.1416L33.4573 8.10335L30.4851 10.166C30.2041 10.3598 29.819 10.2895 29.6251 10.0085C29.5513 9.90135 29.5155 9.77841 29.5155 9.6573H29.5137V2.24454H20.2865L20.2874 25.9123ZM53.8057 29.6245C53.8057 29.1164 53.5968 28.6532 53.2607 28.317C52.9246 27.9809 52.4619 27.7727 51.9539 27.7727H14.3289C13.8202 27.7727 13.3576 27.9809 13.0215 28.317C12.6854 28.6532 12.4764 29.1157 12.4764 29.6245V34.9294C12.4764 35.4374 12.6854 35.9001 13.0215 36.2361C13.3576 36.5722 13.8202 36.7812 14.3289 36.7812H19.7433C19.9572 34.8882 20.8153 33.1901 22.0929 31.9124C23.5772 30.4281 25.6277 29.5101 27.8919 29.5101C30.1567 29.5101 32.2072 30.4281 33.6908 31.9124C34.9686 33.1902 35.8273 34.8882 36.0404 36.7812H51.9539C52.4619 36.7812 52.9252 36.5722 53.2607 36.2361C53.5968 35.9007 53.8057 35.4374 53.8057 34.9294V29.6245ZM78.9092 31.1973V27.5353H76.0836C76.0217 27.5353 75.966 27.5595 75.9267 27.5989V27.6007C75.8862 27.6413 75.8607 27.697 75.8607 27.7582V30.9743C75.8607 31.0349 75.8856 31.0912 75.9261 31.1312C75.966 31.1711 76.0217 31.1966 76.0836 31.1966L78.9092 31.1973ZM0.465684 19.9384C0.208929 19.9384 0 19.7301 0 19.4733C0 19.2165 0.208325 19.0083 0.465684 19.0083H0.942269C1.19902 19.0083 1.40735 19.2165 1.40735 19.4733C1.40735 19.7301 1.19902 19.9384 0.942269 19.9384H0.465684ZM4.7483 19.9384C4.49154 19.9384 4.28322 19.7301 4.28322 19.4733C4.28322 19.2165 4.49154 19.0083 4.7483 19.0083H14.472C14.7288 19.0083 14.9371 19.2165 14.9371 19.4733C14.9371 19.7301 14.7288 19.9384 14.472 19.9384H4.7483ZM7.04766 13.7392C6.7909 13.7392 6.58258 13.5308 6.58258 13.2735C6.58258 13.0168 6.7909 12.8084 7.04766 12.8084H14.472C14.7288 12.8084 14.9371 13.0168 14.9371 13.2735C14.9371 13.5303 14.7288 13.7392 14.472 13.7392H7.04766ZM30.7528 2.24535V8.47557L33.0794 6.86174C33.2883 6.69944 33.5868 6.68431 33.8146 6.84478L36.1242 8.46713V2.24607L30.7528 2.24535ZM59.1893 24.2622C58.9326 24.2622 58.7243 24.0539 58.7243 23.7972C58.7243 23.5405 58.9326 23.3321 59.1893 23.3321H61.4923C61.749 23.3321 61.9574 23.5405 61.9574 23.7972C61.9574 24.0539 61.749 24.2622 61.4923 24.2622H59.1893ZM27.891 34.9495C28.6535 34.9495 29.3444 35.2583 29.844 35.7585L29.8792 35.7967C30.3582 36.2932 30.6531 36.9685 30.6531 37.7115C30.6531 38.4721 30.3442 39.1625 29.844 39.6621L29.8416 39.6645C29.342 40.1642 28.6516 40.4736 27.891 40.4736C27.1287 40.4736 26.4383 40.1642 25.938 39.6645L25.9023 39.6258C25.4233 39.128 25.1289 38.4533 25.1289 37.7115C25.1289 36.9515 25.4384 36.2606 25.9393 35.7597L25.938 35.7585C26.4376 35.2589 27.1285 34.9495 27.891 34.9495ZM28.9671 36.6353C28.6922 36.3605 28.3112 36.1897 27.891 36.1897C27.4708 36.1897 27.0905 36.3605 26.8149 36.6353L26.8137 36.6342L26.8125 36.6353C26.5388 36.9091 26.3692 37.2895 26.3692 37.7115C26.3692 38.1196 26.5278 38.4897 26.7864 38.761L26.8149 38.7876C27.0898 39.0632 27.4708 39.2333 27.891 39.2333C28.3125 39.2333 28.6934 39.0632 28.9683 38.7888C29.2426 38.5139 29.4128 38.1329 29.4128 37.7115C29.4128 37.304 29.2536 36.934 28.9943 36.6608L28.9671 36.6353ZM32.3746 33.2279C31.227 32.0803 29.6422 31.3707 27.8909 31.3707C26.1402 31.3707 24.5548 32.0804 23.4073 33.2279C22.2597 34.3754 21.55 35.9609 21.55 37.7115C21.55 39.4623 22.2598 41.0478 23.4073 42.1953C24.5542 43.3429 26.1396 44.0525 27.8909 44.0525C29.6422 44.0525 31.2271 43.3428 32.3746 42.1953C33.5221 41.0478 34.2318 39.4623 34.2318 37.7115C34.2318 35.9609 33.5221 34.3754 32.3746 33.2279ZM67.344 34.9495C68.1063 34.9495 68.7967 35.2583 69.297 35.7585L69.3321 35.7967C69.8111 36.2932 70.1061 36.9685 70.1061 37.7115C70.1061 38.4721 69.7966 39.1625 69.297 39.6621L69.2946 39.6645C68.795 40.1642 68.1046 40.4736 67.344 40.4736C66.5815 40.4736 65.8913 40.1642 65.391 39.6645L65.3552 39.6258C64.8763 39.128 64.5819 38.4533 64.5819 37.7115C64.5819 36.9515 64.8914 36.2606 65.3922 35.7597L65.391 35.7585C65.8906 35.2589 66.5815 34.9495 67.344 34.9495ZM68.4201 36.6353C68.1445 36.3605 67.7642 36.1897 67.344 36.1897C66.9237 36.1897 66.5434 36.3605 66.2679 36.6353L66.2667 36.6342L66.2654 36.6353C65.9917 36.9091 65.8222 37.2895 65.8222 37.7115C65.8222 38.1196 65.9814 38.4897 66.24 38.761L66.2678 38.7876C66.5433 39.0632 66.9237 39.2333 67.344 39.2333C67.7655 39.2333 68.1464 39.0632 68.4212 38.7888C68.6962 38.5139 68.8658 38.1329 68.8658 37.7115C68.8658 37.304 68.7065 36.934 68.4473 36.6608L68.4201 36.6353ZM61.0029 37.7115C61.0029 39.4623 61.7127 41.0477 62.8602 42.1952C64.0078 43.3428 65.5932 44.0524 67.3439 44.0524C69.0946 44.0524 70.68 43.3427 71.8275 42.1952C72.9745 41.0477 73.6843 39.4623 73.6843 37.7115C73.6843 35.9608 72.9745 34.3753 71.8275 33.2278C70.68 32.0803 69.0946 31.3706 67.3439 31.3706C65.5932 31.3706 64.0077 32.0803 62.8602 33.2278C61.7132 34.3754 61.0029 35.9608 61.0029 37.7115ZM73.5782 19.4882L66.9007 9.4568H59.8101V19.4882H73.5782ZM67.7467 8.49516L75.2267 19.731C75.3073 19.8358 75.3545 19.9667 75.3545 20.1083C75.3545 20.451 75.0765 20.7284 74.7344 20.7284H59.1898C58.8477 20.7284 58.5697 20.451 58.5697 20.1083V8.83678C58.5697 8.49463 58.8477 8.21667 59.1898 8.21667H67.2306V8.21849C67.431 8.21849 67.628 8.3153 67.7467 8.49516Z" fill="#222222"/>
</svg>
