<svg width="12" height="13" viewBox="0 0 12 13" fill="none" xmlns="http://www.w3.org/2000/svg">
<g clip-path="url(#clip0_436_176)">
<path d="M10.7713 5.90434V6.34495C10.7707 7.37771 10.4363 8.38261 9.81795 9.20978C9.19958 10.037 8.33039 10.6421 7.34002 10.9349C6.34964 11.2277 5.29114 11.1926 4.32238 10.8347C3.35362 10.4767 2.52651 9.81527 1.9644 8.94888C1.40229 8.0825 1.1353 7.05762 1.20325 6.02709C1.2712 4.99657 1.67046 4.01562 2.34146 3.23055C3.01247 2.44547 3.91928 1.89833 4.92664 1.67073C5.93401 1.44313 6.98797 1.54726 7.93132 1.96759" stroke="#0CB042" stroke-width="0.884165" stroke-linecap="round" stroke-linejoin="round"/>
<path d="M10.7713 2.51367L5.98209 7.30769L4.54532 5.87092" stroke="#0CB042" stroke-width="0.884165" stroke-linecap="round" stroke-linejoin="round"/>
</g>
<defs>
<clipPath id="clip0_436_176">
<rect width="11.4941" height="11.4941" fill="white" transform="translate(0.235016 0.5979)"/>
</clipPath>
</defs>
</svg>
