<svg width="47" height="51" viewBox="0 0 47 51" fill="none" xmlns="http://www.w3.org/2000/svg">
<g clip-path="url(#clip0_224_127)">
<path fill-rule="evenodd" clip-rule="evenodd" d="M38.0253 5.99175C38.0253 4.96969 37.8252 4.05661 37.4228 3.25359C36.894 2.23153 36.0546 1.71971 34.9047 1.71971C33.4261 1.71971 31.6741 2.67841 29.6485 4.59463C27.294 6.78508 25.1957 7.8809 23.3521 7.8809C22.5679 7.8809 21.7464 7.5155 20.8885 6.78508L18.7266 4.75878C16.7736 2.9515 14.803 2.04761 12.8125 2.04761C10.6406 2.04761 9.0442 2.4219 8.02255 3.16933C6.92673 3.97276 6.37981 5.26901 6.37981 7.0582C6.37981 7.91608 6.59071 8.71874 7.01057 9.46767H36.9314C37.6611 8.33665 38.0253 7.17754 38.0253 5.99175ZM38.8187 9.46846H39.9413C41.8022 9.46846 43.3535 10.1073 44.5948 11.3855C45.8907 12.6637 46.5385 14.2241 46.5385 16.0684V17.3276C46.5385 19.1709 45.8907 20.7233 44.5948 21.9825L44.1838 22.3935V42.9581C44.1838 44.911 43.7003 46.4726 42.7335 47.6407C41.475 49.156 39.4213 49.9134 36.5749 49.9134H9.82914C6.98239 49.9134 4.92979 49.1559 3.66983 47.6411C2.70302 46.4734 2.21941 44.9117 2.21941 42.9585V21.9281C0.997321 20.687 0.384644 19.1532 0.384644 17.3281L0.38503 16.0689C0.38503 14.2426 1.01464 12.6821 2.27418 11.3859C3.15023 10.5458 4.15414 9.971 5.28547 9.66091C4.92122 8.83972 4.73852 7.97218 4.73852 7.05979C4.73852 4.68582 5.51374 2.94262 7.06494 1.82979C8.37899 0.880743 10.2956 0.405681 12.8133 0.405681C15.2598 0.405681 17.6044 1.45552 19.8498 3.5553L21.9846 5.5816C22.5135 6.01962 22.9697 6.23902 23.3528 6.23902C24.7577 6.23902 26.4827 5.28997 28.5272 3.39109C30.8625 1.18126 32.9889 0.0769348 34.9051 0.0769348C36.7298 0.0769348 38.0536 0.880357 38.8743 2.48681C39.4031 3.49067 39.6685 4.65916 39.6685 5.9921C39.6685 7.14161 39.3845 8.30086 38.8187 9.46846ZM43.4457 12.5358C42.4789 11.5868 41.3101 11.1117 39.9415 11.1117H28.5265V22.2844H40.078C41.1012 22.2844 42.0228 21.9739 42.8433 21.3532H42.8703L43.4458 20.8332C44.4126 19.8661 44.897 18.698 44.897 17.3288L44.8974 16.0684C44.8974 14.6802 44.4125 13.5031 43.4457 12.5358ZM40.0779 32.3064C39.9319 32.3064 39.8044 32.2516 39.6951 32.1419C39.5862 32.0329 39.5306 31.9043 39.5306 31.7587L39.531 23.9273H26.693V48.2712H36.5751C38.6188 48.2712 40.1245 47.8425 41.0913 46.9838C42.0593 46.1078 42.5417 44.7659 42.5417 42.9586V23.4341C41.885 23.6898 41.2469 23.8451 40.6263 23.9004V31.7584C40.6263 31.9045 40.571 32.0327 40.4618 32.1416C40.3528 32.2514 40.2243 32.3064 40.0779 32.3064ZM27.4317 11.1119H19.2186V22.2847H27.4317V11.1119ZM20.9156 23.927V48.271H25.5975V23.927H20.9156ZM18.1241 11.1119H6.59935C5.39416 11.1857 4.34551 11.6596 3.45092 12.5361C2.50225 13.5218 2.02789 14.6995 2.02789 16.0688V17.328C2.02789 18.6972 2.50261 19.8653 3.45092 20.8324L3.61547 20.997C4.54675 21.8553 5.66808 22.2841 6.98213 22.2841H18.1242L18.1241 11.1119ZM3.86227 23.1874V42.9581C3.86227 44.7654 4.34587 46.1073 5.31269 46.9833C6.27949 47.8424 7.78515 48.2708 9.82885 48.2708H19.821L19.8213 23.9268H6.98241C5.83251 23.9268 4.79394 23.6802 3.86227 23.1874Z" fill="black"/>
</g>
<defs>
<clipPath id="clip0_224_127">
<rect width="46.1538" height="50.7692" fill="white" transform="translate(0.384644 0.0769348)"/>
</clipPath>
</defs>
</svg>
