<svg width="30" height="31" viewBox="0 0 30 31" fill="none" xmlns="http://www.w3.org/2000/svg">
<path fill-rule="evenodd" clip-rule="evenodd" d="M19.4205 3.46252L8.556 14.3465C8.45821 14.44 8.3806 14.5525 8.32797 14.6771C8.27534 14.8017 8.2488 14.9358 8.25 15.071C8.2494 15.2093 8.27612 15.3464 8.32863 15.4743C8.38115 15.6022 8.45841 15.7185 8.556 15.8165C12.486 19.6505 16.2735 23.351 19.9185 26.918C20.106 27.0935 20.856 27.53 21.435 26.882C22.014 26.2325 21.663 25.667 21.435 25.433L10.833 15.071L20.9535 4.93252C21.3225 4.42352 21.2925 3.95402 20.8635 3.52402C20.4335 3.09402 19.9525 3.07252 19.4205 3.46252Z" fill="black"/>
</svg>
