<svg width="53" height="52" viewBox="0 0 53 52" fill="none" xmlns="http://www.w3.org/2000/svg">
<path d="M6.03861 32.0961C5.80913 32.0961 5.58892 32.1872 5.42666 32.3494C5.2644 32.5117 5.17323 32.7319 5.17323 32.9614V41.6152C5.17323 41.8447 5.2644 42.0649 5.42666 42.2272C5.58892 42.3894 5.80913 42.4806 6.03861 42.4806H18.1539C18.3834 42.4806 18.6036 42.3894 18.7658 42.2272C18.9282 42.0649 19.0193 41.8447 19.0193 41.6152V32.9614C19.0193 32.7319 18.9282 32.5117 18.7658 32.3494C18.6036 32.1872 18.3834 32.0961 18.1539 32.0961H6.03861ZM17.2886 40.7498H6.90398V33.8268H17.2886V40.7498ZM32.8654 45.0767H2.57708V9.56647H15.5578V19.1154C15.5578 19.3449 15.6489 19.5651 15.8112 19.7274L18.4073 22.3235C18.5697 22.4858 18.7898 22.5769 19.0193 22.5769C19.2488 22.5769 19.469 22.4858 19.6312 22.3235L21.6154 20.3389L23.5995 22.3231C23.7617 22.4854 23.982 22.5769 24.2115 22.5769C24.441 22.5769 24.6612 22.4858 24.8234 22.3234L26.8076 20.3389L28.7917 22.3231C28.9539 22.4854 29.1742 22.5769 29.4037 22.5769C29.6332 22.5769 29.8534 22.4858 30.0156 22.3234L32.6117 19.7274C32.774 19.5651 32.8652 19.3449 32.8652 19.1154V9.56644H45.8459V31.2307C45.8459 31.7085 46.2334 32.0961 46.7113 32.0961C47.1892 32.0961 47.5767 31.7085 47.5767 31.2307V8.73073C47.5767 8.53834 47.5125 8.35098 47.3939 8.19915L41.3362 0.410724C41.1725 0.200175 40.9206 0.0769348 40.6536 0.0769348H7.76917C7.50222 0.0769348 7.25033 0.200175 7.08653 0.410724L1.02887 8.19915C0.910268 8.35098 0.84613 8.53834 0.84613 8.73073V45.9421C0.84613 46.1716 0.937305 46.3917 1.09956 46.554C1.26182 46.7163 1.48203 46.8075 1.71151 46.8075H32.8652C33.3431 46.8075 33.7306 46.42 33.7306 45.9421C33.7306 45.4642 33.3432 45.0767 32.8654 45.0767ZM31.1346 18.7572L29.4038 20.488L27.4198 18.5039C27.2574 18.3416 27.0373 18.2501 26.8078 18.2501C26.5783 18.2501 26.3581 18.3413 26.1958 18.5035L24.2117 20.488L22.2276 18.504C22.0652 18.3417 21.8451 18.2501 21.6156 18.2501C21.3861 18.2501 21.1659 18.3413 21.0037 18.5035L19.0196 20.4881L17.2888 18.7574V9.56649H31.1348L31.1346 18.7572ZM17.6337 7.83571L19.643 1.80781H28.7805L30.7898 7.83571H17.6337ZM44.9194 7.83571H32.6132L30.6039 1.80781H40.2301L44.9194 7.83571ZM8.19267 1.80781H17.8189L15.8096 7.83571H3.50339L8.19267 1.80781ZM42.3846 32.9616H38.9231V28.6346C38.9231 28.2845 38.7121 27.969 38.3887 27.8352C38.0654 27.7012 37.6934 27.7754 37.4458 28.0226L28.7919 36.6765C28.6297 36.8387 28.5384 37.059 28.5384 37.2884C28.5384 37.5179 28.6297 37.7381 28.7919 37.9004L37.4458 46.5542C37.6934 46.8014 38.0654 46.8755 38.3887 46.7415C38.7121 46.6079 38.9231 46.2922 38.9231 45.9422V41.6153H42.3846C45.2476 41.6153 47.5769 43.5566 47.5769 45.9422C47.5769 48.1571 45.5857 50.0064 42.9459 50.2428C42.4846 50.2838 42.1373 50.6805 42.1579 51.1429C42.1779 51.6054 42.5588 51.9701 43.0216 51.9701C43.0394 51.9701 43.0572 51.9693 43.0749 51.9685C48.5106 51.6406 52.7692 47.4728 52.7692 42.4806C52.7692 37.2316 48.1112 32.9616 42.3846 32.9616ZM49.1199 47.3545C49.2447 46.8944 49.3077 46.4195 49.3077 45.9425C49.3077 42.6026 46.202 39.8849 42.3846 39.8849H38.0577C37.8283 39.8849 37.608 39.976 37.4458 40.1382C37.2836 40.3005 37.1923 40.5207 37.1923 40.7502V43.8536L30.6274 37.2887L37.1923 30.7238V33.8272C37.1923 34.0567 37.2836 34.2768 37.4458 34.4392C37.608 34.6014 37.8283 34.6926 38.0577 34.6926H42.3846C47.1562 34.6926 51.0384 38.1862 51.0384 42.481C51.0253 44.2871 50.3419 46.024 49.1199 47.3545Z" fill="#222222"/>
</svg>
