<svg width="30" height="31" viewBox="0 0 30 31" fill="none" xmlns="http://www.w3.org/2000/svg">
<path fill-rule="evenodd" clip-rule="evenodd" d="M10.5795 3.46252L21.444 14.3465C21.5417 14.44 21.6194 14.5525 21.672 14.6771C21.7246 14.8017 21.7512 14.9358 21.75 15.071C21.7506 15.2093 21.7238 15.3464 21.6713 15.4743C21.6188 15.6022 21.5415 15.7185 21.444 15.8165C17.514 19.6505 13.7265 23.351 10.0815 26.918C9.89396 27.0935 9.14396 27.53 8.56496 26.882C7.98596 26.2325 8.33696 25.667 8.56496 25.433L19.167 15.071L9.04646 4.93252C8.67746 4.42352 8.70746 3.95402 9.13646 3.52402C9.56646 3.09402 10.0475 3.07252 10.5795 3.46252Z" fill="black"/>
</svg>
