<svg width="53" height="52" viewBox="0 0 53 52" fill="none" xmlns="http://www.w3.org/2000/svg">
<g clip-path="url(#clip0_224_125)">
<path d="M6.79952 0.0769348C3.21823 0.0769348 0.307679 2.98749 0.307679 6.56876V36.5838C0.306593 37.2865 1.13817 37.6585 1.66083 37.189L9.5427 30.0935H10.8545V38.2065C10.8545 41.7878 13.7651 44.6982 17.3463 44.6982H42.9943L50.8758 51.7892C51.3988 52.2608 52.2333 51.8881 52.2308 51.184V21.1698C52.2308 17.5882 49.3188 14.6776 45.7371 14.6776H41.6839V6.56942C41.6839 2.98813 38.7733 0.0775838 35.1921 0.0775838L6.79952 0.0769348ZM35.192 1.69952C37.9025 1.69952 40.0613 3.85812 40.0613 6.56876V23.6078C40.0613 25.7476 38.7103 27.5371 36.8128 28.1981C36.8037 27.6045 36.7339 27.1642 36.5324 26.7751C36.2999 26.3255 35.8585 26.0808 35.6057 25.9732C35.3529 25.866 35.234 25.8226 35.0892 25.6976C34.9443 25.5727 34.7484 25.3372 34.5203 24.7755C34.292 24.2137 34.2707 23.9062 34.2873 23.7153C34.3025 23.5245 34.3601 23.4154 34.4663 23.1576C34.5724 22.8997 34.7082 22.4081 34.5564 21.9247C34.4046 21.4415 34.087 21.0293 33.5564 20.4923C33.0258 19.9552 32.6173 19.6335 32.1368 19.4748C31.6561 19.3162 31.1643 19.4386 30.9039 19.5397C30.6434 19.6407 30.5337 19.7005 30.3395 19.7139C30.1458 19.7261 29.8358 19.6987 29.2748 19.4618C28.7163 19.226 28.4877 19.0261 28.37 18.882C28.2523 18.7374 28.2193 18.6179 28.1071 18.3481C27.9944 18.0782 27.7137 17.6205 27.2498 17.3958C26.7858 17.1709 26.2516 17.1155 25.453 17.1155C24.6544 17.1155 24.1266 17.1713 23.6624 17.3958C23.1985 17.6207 22.9193 18.0782 22.8069 18.3481C22.6943 18.6179 22.6599 18.7377 22.5422 18.882C22.4245 19.0264 22.1978 19.226 21.6388 19.4618C21.0775 19.6987 20.7664 19.7273 20.5726 19.7139C20.3788 19.7015 20.2705 19.6407 20.0102 19.5397C19.7498 19.4386 19.2564 19.3162 18.7759 19.4748C18.2952 19.6335 17.8866 19.9547 17.3561 20.4923C16.8256 21.0294 16.5079 21.4414 16.3562 21.9247C16.2044 22.4081 16.3409 22.8997 16.4463 23.1576C16.5524 23.4154 16.609 23.5245 16.6253 23.7153C16.6405 23.9062 16.6191 24.2133 16.3924 24.7755C16.1642 25.3372 15.9683 25.5727 15.8233 25.6976C15.6785 25.8226 15.5615 25.866 15.3084 25.9732C15.0556 26.0804 14.6123 26.3257 14.3796 26.7751C14.1486 27.222 14.0918 27.733 14.0975 28.4704H9.22829C9.02909 28.4716 8.8375 28.5461 8.68937 28.6794L1.9306 34.7631V6.56895C1.9306 3.85839 4.0878 1.69969 6.7991 1.69969L35.192 1.69952ZM5.98543 7.37709C5.53742 7.3789 5.17559 7.74362 5.1774 8.19165C5.17922 8.63713 5.53996 8.99787 5.98543 8.99968H36.0061C36.4516 8.99787 36.8123 8.63713 36.8141 8.19165C36.8159 7.74363 36.4541 7.37891 36.0061 7.37709H5.98543ZM5.98543 12.2463C5.53959 12.2482 5.17885 12.6089 5.17704 13.0544C5.17558 13.5024 5.53741 13.8671 5.98543 13.869H36.0061C36.4541 13.8671 36.8159 13.5024 36.8141 13.0544C36.8127 12.6089 36.4519 12.2482 36.0061 12.2463H5.98543ZM41.6843 16.3013H45.7374C48.448 16.3013 50.6067 18.4585 50.6067 21.1691V49.3696L43.8454 43.2849C43.6976 43.1513 43.5061 43.0767 43.3068 43.0756H17.3473C14.6367 43.0756 12.4781 40.917 12.4781 38.2064V30.0934L14.3509 30.0982C14.5888 30.606 14.9376 30.8131 15.311 30.9743C15.5638 31.0815 15.6812 31.1184 15.826 31.2437C15.9709 31.3687 16.1668 31.6088 16.3951 32.1706C16.6232 32.7323 16.6445 33.0398 16.6279 33.2307C16.6127 33.4216 16.5551 33.5306 16.4489 33.7885C16.3429 34.0463 16.1914 34.5158 16.3588 35.0228C16.5106 35.5059 16.8282 35.9101 17.3588 36.4472C17.8894 36.9843 18.2979 37.3125 18.7784 37.4707C19.2874 37.6424 19.7524 37.5001 20.0127 37.3979C20.2731 37.2969 20.3815 37.2436 20.5752 37.2299C20.7689 37.2175 21.0805 37.2451 21.6415 37.482C22.1999 37.7181 22.4271 37.919 22.5448 38.0636C22.6625 38.2081 22.6969 38.3262 22.8095 38.596C22.9433 38.9467 23.2011 39.3172 23.665 39.542C24.1289 39.7669 24.6553 39.8289 25.4539 39.8289C26.2525 39.8289 26.7867 39.7669 27.2507 39.542C27.7146 39.3172 27.9983 38.9093 28.108 38.596C28.2206 38.3262 28.2533 38.2077 28.3709 38.0636C28.4886 37.919 28.7172 37.7181 29.2757 37.482C29.8367 37.2451 30.1467 37.2165 30.3404 37.2299C30.5342 37.2422 30.6439 37.2965 30.9047 37.3979C31.2155 37.524 31.657 37.629 32.1376 37.4707C32.6183 37.3121 33.0267 36.9843 33.5574 36.4472C34.0879 35.9101 34.4056 35.5059 34.5573 35.0228C34.709 34.5392 34.6127 34.0962 34.4671 33.7885C34.361 33.5306 34.3045 33.4216 34.2882 33.2307C34.273 33.0398 34.2958 32.7327 34.5229 32.1706C34.751 31.6088 34.9799 31.3324 35.0919 31.2437C35.2208 31.134 35.3555 31.0818 35.6083 30.9743C35.8611 30.8671 36.2856 30.6661 36.5337 30.1644C36.5725 30.0897 36.6072 30.013 36.6366 29.9348C39.5297 29.2803 41.6844 26.694 41.6844 23.6078L41.6843 16.3013ZM5.98543 17.1155C5.53994 17.1173 5.17922 17.4781 5.1774 17.9236C5.17559 18.3715 5.53742 18.7362 5.98543 18.7381H15.7238C16.1718 18.7362 16.5336 18.3715 16.5318 17.9236C16.5299 17.4781 16.1693 17.1173 15.7238 17.1155H5.98543ZM25.4546 18.7366C26.1446 18.7369 26.476 18.8123 26.5654 18.8746C26.6592 19.0503 26.8074 19.5483 27.1137 19.9061C27.4285 20.2919 27.9131 20.6461 28.6411 20.9536C29.3666 21.2599 29.9605 21.3668 30.4553 21.3324C30.8044 21.3302 31.4136 21.0882 31.628 21.014C31.6831 21.0325 31.9503 21.1817 32.3998 21.6367C32.8493 22.0915 32.9891 22.356 33.0018 22.3939C33.014 22.432 32.9999 22.4534 32.9637 22.5414C32.8913 22.717 32.7138 23.0774 32.6708 23.5714C32.6276 24.0654 32.7221 24.6575 33.0177 25.3855C33.3132 26.1135 33.6541 26.6057 34.0303 26.9306C34.4067 27.2551 34.792 27.3892 34.9699 27.4645C35.059 27.5021 35.0829 27.5082 35.0886 27.5167C35.11 27.5648 35.197 27.8382 35.1916 28.4705C35.1977 29.103 35.1104 29.3825 35.0886 29.4307C35.0825 29.4398 35.0564 29.4462 34.9699 29.4814C34.792 29.5568 34.4064 29.6907 34.0303 30.0153C33.6544 30.3398 33.3136 30.832 33.0177 31.5603C32.7221 32.2884 32.6276 32.8725 32.6708 33.3666C32.7138 33.8605 32.8916 34.2271 32.9637 34.4027C32.9999 34.4904 33.0133 34.5132 33.0111 34.5263C32.9898 34.5874 32.8486 34.8541 32.3994 35.3089C31.9499 35.7638 31.6826 35.9073 31.6276 35.9253C31.5725 35.9439 31.6678 35.9598 31.4896 35.8906C31.3114 35.8218 30.9482 35.6494 30.4534 35.6149C29.9583 35.5806 29.3646 35.6794 28.6392 35.9859C27.9113 36.2934 27.4263 36.6537 27.1115 37.0395C26.7968 37.4252 26.678 37.8076 26.6091 37.9727C26.5404 38.1379 26.612 38.047 26.5426 38.0804C26.4733 38.1136 26.1423 38.2057 25.4523 38.2057C24.7623 38.2057 24.4378 38.114 24.3684 38.0804C24.2991 38.047 24.3716 38.1376 24.3035 37.9727C24.2346 37.8076 24.1141 37.4237 23.7998 37.038C23.485 36.6522 23.0004 36.2918 22.2723 35.9844C21.5469 35.6779 20.953 35.5809 20.4582 35.6153C19.9631 35.6497 19.5999 35.8203 19.4219 35.8894C19.2438 35.9583 19.339 35.9441 19.2839 35.926C19.2289 35.9076 18.9617 35.7648 18.5121 35.3096C18.0627 34.8547 17.9232 34.5888 17.9004 34.527C17.8975 34.5117 17.9127 34.4925 17.9479 34.4049C18.0203 34.2292 18.1992 33.8627 18.2427 33.3686C18.2858 32.8747 18.1899 32.289 17.8939 31.5607C17.5984 30.8326 17.2589 30.3405 16.8831 30.0156C16.5068 29.6911 16.1196 29.557 15.9418 29.4817C15.8548 29.4447 15.8313 29.4397 15.8245 29.431C15.8038 29.3824 15.7168 29.1068 15.7224 28.4719C15.7161 27.837 15.8045 27.5639 15.8252 27.5147C15.8313 27.5056 15.8556 27.5017 15.944 27.4625C16.1218 27.3872 16.5089 27.2531 16.8852 26.9287C17.2613 26.6041 17.6006 26.112 17.8961 25.3836C18.1916 24.6556 18.2879 24.0634 18.2444 23.5695C18.2014 23.0754 18.0221 22.7151 17.9496 22.5394C17.9134 22.4517 17.9 22.4307 17.9022 22.4174C17.9236 22.3562 18.0644 22.0896 18.514 21.6347C18.9634 21.1797 19.2308 21.0302 19.2858 21.0121C19.3408 20.9936 19.2455 20.9845 19.4238 21.0548C19.6016 21.1237 19.9653 21.2961 20.4601 21.3304C20.9551 21.3648 21.5487 21.258 22.2741 20.9516C23.0021 20.6441 23.4871 20.2899 23.8015 19.9042C24.1163 19.5184 24.3452 18.8838 24.3452 18.8838C24.4129 18.8179 24.7644 18.7337 25.4546 18.7366ZM5.98543 21.985C5.53959 21.9869 5.17885 22.3475 5.17704 22.793C5.17522 23.2411 5.53705 23.6058 5.98506 23.6077H13.328C13.7785 23.6094 14.1444 23.2436 14.1425 22.793C14.1407 22.345 13.7759 21.9832 13.328 21.985H5.98543ZM44.1144 21.985C43.6685 21.9869 43.3078 22.3475 43.306 22.793C43.3041 23.2411 43.666 23.6058 44.114 23.6077H46.5526C47.0006 23.6058 47.3624 23.2411 47.3611 22.793C47.3592 22.3475 46.9985 21.9869 46.5526 21.985H44.1144ZM25.4546 23.6077C22.7758 23.6077 20.5916 25.792 20.5916 28.4707C20.5916 31.1493 22.7759 33.3369 25.4546 33.3369C28.1333 33.3369 30.3223 31.1493 30.3223 28.4707C30.3223 25.792 28.1334 23.6077 25.4546 23.6077ZM25.4546 25.2241C27.2566 25.2241 28.6998 26.6688 28.6998 28.4708C28.6998 30.2726 27.2566 31.716 25.4546 31.716C23.6528 31.716 22.2155 30.2726 22.2155 28.4708C22.2155 26.6688 23.6528 25.2241 25.4546 25.2241ZM44.1144 26.8466C43.6653 26.8481 43.3034 27.2139 43.306 27.6623C43.3078 28.1078 43.6685 28.4686 44.114 28.4703H46.5526C46.9981 28.4686 47.3589 28.1078 47.3606 27.6623C47.3631 27.2136 47.0014 26.8481 46.5526 26.8463L44.1144 26.8466ZM37.6226 31.716C37.1746 31.7177 36.8127 32.0806 36.8146 32.5286C36.8163 32.9741 37.1771 33.3349 37.6226 33.3367H46.5526C46.9984 33.3348 47.3591 32.9741 47.3609 32.5286C47.3627 32.0806 47.0009 31.7174 46.5529 31.716H37.6226ZM36.0061 36.5837C35.558 36.5819 35.1933 36.9437 35.1916 37.3917C35.1897 37.8423 35.5555 38.2081 36.0061 38.2062H46.5529C47.0009 38.2044 47.3628 37.8398 47.3609 37.3917C47.3591 36.9462 46.9984 36.5851 46.5529 36.5837H36.0061Z" fill="#222222"/>
</g>
<defs>
<clipPath id="clip0_224_125">
<rect width="51.9231" height="51.9231" fill="white" transform="translate(0.307678 0.0769348)"/>
</clipPath>
</defs>
</svg>
