<svg width="34" height="34" viewBox="0 0 34 34" fill="none" xmlns="http://www.w3.org/2000/svg">
<circle cx="17.0427" cy="16.8993" r="16.2428" fill="#CDCDCD"/>
<path d="M17.0427 9.68042C17.8142 9.68042 18.6056 9.70027 19.3726 9.73276L20.2786 9.77607L21.1458 9.82751L21.9579 9.88255L22.6997 9.94031C23.5048 10.0016 24.2624 10.345 24.8392 10.91C25.4159 11.475 25.7748 12.2255 25.8526 13.0291L25.8887 13.4127L25.9564 14.2338C26.0195 15.0848 26.0664 16.0124 26.0664 16.8995C26.0664 17.7865 26.0195 18.7141 25.9564 19.5651L25.8887 20.3862L25.8526 20.7698C25.7748 21.5736 25.4158 22.3241 24.8388 22.8892C24.2619 23.4542 23.504 23.7975 22.6988 23.8586L21.9588 23.9154L21.1467 23.9714L20.2786 24.0228L19.3726 24.0661C18.5964 24.0998 17.8196 24.1172 17.0427 24.1185C16.2657 24.1172 15.4889 24.0998 14.7127 24.0661L13.8067 24.0228L12.9395 23.9714L12.1274 23.9154L11.3856 23.8586C10.5806 23.7973 9.8229 23.4539 9.24614 22.8889C8.66938 22.3239 8.31051 21.5734 8.23273 20.7698L8.19664 20.3862L8.12896 19.5651C8.06023 18.6782 8.02351 17.789 8.01887 16.8995C8.01887 16.0124 8.06579 15.0848 8.12896 14.2338L8.19664 13.4127L8.23273 13.0291C8.31048 12.2256 8.66922 11.4753 9.2458 10.9103C9.82238 10.3453 10.5798 10.0018 11.3847 9.94031L12.1256 9.88255L12.9377 9.82751L13.8058 9.77607L14.7118 9.73276C15.4883 9.69912 16.2654 9.68167 17.0427 9.68042ZM17.0427 11.4852C16.2982 11.4852 15.5321 11.505 14.7867 11.5357L13.9042 11.5781L13.0568 11.6278L12.261 11.6819L11.5318 11.7387C11.1485 11.7656 10.7871 11.9275 10.5118 12.1956C10.2366 12.4638 10.0653 12.8208 10.0285 13.2033C9.92289 14.2943 9.82363 15.6524 9.82363 16.8995C9.82363 18.1465 9.92289 19.5046 10.0285 20.5956C10.1052 21.3825 10.7296 21.9943 11.5318 22.0602L12.261 22.1161L13.0568 22.1702L13.9042 22.2208L14.7867 22.2632C15.5321 22.2939 16.2982 22.3137 17.0427 22.3137C17.7871 22.3137 18.5532 22.2939 19.2986 22.2632L20.1811 22.2208L21.0285 22.1711L21.8244 22.117L22.5535 22.0602C22.9368 22.0333 23.2982 21.8714 23.5735 21.6033C23.8487 21.3352 24.02 20.9781 24.0568 20.5956C24.1624 19.5046 24.2617 18.1465 24.2617 16.8995C24.2617 15.6524 24.1624 14.2943 24.0568 13.2033C24.02 12.8208 23.8487 12.4638 23.5735 12.1956C23.2982 11.9275 22.9368 11.7656 22.5535 11.7387L21.8244 11.6828L21.0285 11.6287L20.1811 11.5781L19.2986 11.5357C18.547 11.5035 17.7949 11.4866 17.0427 11.4852ZM15.2379 14.7112C15.2378 14.623 15.2593 14.5361 15.3005 14.4581C15.3417 14.3801 15.4013 14.3134 15.4741 14.2636C15.5469 14.2139 15.6308 14.1827 15.7185 14.1728C15.8061 14.1629 15.8948 14.1746 15.9769 14.2068L16.05 14.2428L19.84 16.4302C19.9155 16.4738 19.9793 16.5349 20.0261 16.6084C20.0729 16.6819 20.1013 16.7656 20.1088 16.8524C20.1164 16.9392 20.1028 17.0265 20.0694 17.107C20.0359 17.1875 19.9836 17.2587 19.9167 17.3145L19.84 17.3687L16.05 19.557C15.9737 19.6012 15.8876 19.6261 15.7994 19.6294C15.7113 19.6328 15.6236 19.6146 15.544 19.5763C15.4645 19.5381 15.3955 19.481 15.3431 19.41C15.2907 19.339 15.2564 19.2562 15.2433 19.1689L15.2379 19.0877V14.7112Z" fill="#35322F"/>
</svg>
